<svg width="158" height="75" viewBox="0 0 158 75" fill="none" xmlns="http://www.w3.org/2000/svg">
<path d="M1 18.499H0.5V18.999V40.2735V40.7735H1H5.47282H5.97282V40.2735V18.999V18.499H5.47282H1ZM23.5012 34.3223H23.9642L23.9997 33.8607C24.0556 33.1337 24.0872 32.7008 24.0872 32.6181C24.0872 31.3476 23.8753 30.1833 23.4442 29.1327H23.5832H25.4629V34.9692C25.4629 36.8755 25.9868 38.4026 27.111 39.4619L27.1144 39.4651C28.2469 40.5121 29.8076 41.0029 31.726 41.0029C32.4694 41.0029 33.1782 40.9225 33.8508 40.7594L33.8508 40.7596L33.861 40.7569C34.5583 40.5723 35.1639 40.3002 35.6645 39.9301L35.9699 39.7044L35.8344 39.3497L34.6302 36.1958L34.3906 35.5683L33.8582 35.9778C33.4597 36.2844 32.9686 36.4476 32.3568 36.4476C31.8492 36.4476 31.5141 36.3096 31.2866 36.0877C31.073 35.843 30.9357 35.4725 30.9357 34.9119V29.1327H34.2778H34.7778V28.6327V25.1921V24.6921H34.2778H30.9357V21.4361V20.9361H30.4357H25.9629H25.4629V21.4361V24.6921H23.5832H23.0832V25.1921V28.3725C23.0433 28.2991 23.0021 28.2263 22.9598 28.1541C22.2256 26.8506 21.2013 25.8466 19.8937 25.1519C18.5918 24.4603 17.1434 24.1187 15.5591 24.1187C13.9343 24.1187 12.4464 24.4804 11.106 25.2113C9.78358 25.9236 8.73319 26.9338 7.96115 28.2341L7.95994 28.2362C7.20397 29.5233 6.83022 30.9692 6.83022 32.5608C6.83022 34.1727 7.21417 35.6302 7.99161 36.9191C8.76925 38.2083 9.87313 39.2166 11.2876 39.944L11.2876 39.9441L11.2927 39.9466C12.7106 40.6556 14.3281 41.0029 16.1325 41.0029C19.0266 41.0029 21.3026 40.1365 22.8742 38.3374L23.1695 37.9994L22.8652 37.6695L20.4854 35.089L20.1388 34.7132L19.7708 35.068C19.2793 35.542 18.7522 35.8858 18.1895 36.1081C17.6459 36.3113 17.0015 36.4189 16.2472 36.4189C15.162 36.4189 14.2939 36.162 13.6114 35.6792C13.1061 35.3218 12.7403 34.8728 12.5101 34.3223H23.5012ZM17.7846 29.2697L17.7846 29.2697L17.7908 29.2749C18.2385 29.648 18.5582 30.1222 18.7446 30.7132H12.3985C12.5849 30.1038 12.9065 29.6208 13.356 29.2462C13.9425 28.7574 14.6754 28.5019 15.5877 28.5019C16.4741 28.5019 17.196 28.7628 17.7846 29.2697ZM62.794 40.7735H63.294V40.2735V31.4426C63.294 29.092 62.7015 27.2404 61.4273 25.9855C60.1874 24.7262 58.5205 24.1187 56.4862 24.1187C55.2737 24.1187 54.1421 24.3515 53.098 24.8223L53.0947 24.8239C52.2724 25.2021 51.5583 25.7079 50.9564 26.3406C50.4302 25.6993 49.7842 25.1942 49.0218 24.8289C48.0668 24.3523 47.0059 24.1187 45.8489 24.1187C44.7962 24.1187 43.8136 24.3011 42.9071 24.672L42.9033 24.6735C42.3939 24.8868 41.9269 25.1552 41.5034 25.4787V24.848V24.348H41.0034H36.7312H36.2312V24.848V40.2735V40.7735H36.7312H41.2041H41.7041V40.2735V32.5321C41.7041 31.2606 41.9956 30.4003 42.4906 29.8589L42.4906 29.859L42.4953 29.8537C43 29.286 43.6787 28.9894 44.5873 28.9894C45.4525 28.9894 46.0218 29.2533 46.3909 29.7128C46.7768 30.1933 47.0119 30.9707 47.0119 32.1307V40.2735V40.7735H47.5119H51.9847H52.4847V40.2735V32.5321C52.4847 31.2606 52.7763 30.4003 53.2712 29.8589L53.2713 29.859L53.2759 29.8537C53.7787 29.2881 54.4657 28.9894 55.3967 28.9894C56.2142 28.9894 56.7752 29.2498 57.159 29.7222L57.1644 29.7288L57.17 29.7353C57.573 30.1979 57.8212 30.9639 57.8212 32.1307V40.2735V40.7735H58.3212H62.794ZM80.8484 34.3223H81.3114L81.3469 33.8607C81.4028 33.1337 81.4344 32.7008 81.4344 32.6181C81.4344 30.9388 81.0641 29.4452 80.307 28.1542C79.5728 26.8506 78.5486 25.8466 77.2409 25.1519C75.9389 24.4603 74.4905 24.1187 72.9062 24.1187C71.2814 24.1187 69.7936 24.4804 68.4532 25.2113C67.1308 25.9236 66.0804 26.9338 65.3083 28.2341L65.3071 28.2362C64.5511 29.5233 64.1774 30.9692 64.1774 32.5608C64.1774 34.1727 64.5613 35.6302 65.3388 36.9191C66.1164 38.2083 67.2203 39.2166 68.6348 39.9441L68.6399 39.9466C70.0578 40.6556 71.6752 41.0029 73.4797 41.0029C76.3738 41.0029 78.6497 40.1365 80.2214 38.3374L80.5167 37.9994L80.2124 37.6695L77.8326 35.089L77.486 34.7132L77.118 35.068C76.6265 35.542 76.0994 35.8858 75.5367 36.1081C74.9932 36.3113 74.3487 36.4189 73.5944 36.4189C72.5092 36.4189 71.6411 36.162 70.9586 35.6792C70.4533 35.3218 70.0874 34.8728 69.8573 34.3223H80.8484ZM75.1318 29.2697L75.1317 29.2697L75.1379 29.2749C75.5857 29.648 75.9054 30.1222 76.0918 30.7132H69.7457C69.9321 30.1038 70.2537 29.6208 70.7032 29.2462C71.2897 28.7574 72.0225 28.5019 72.9349 28.5019C73.8213 28.5019 74.5432 28.7628 75.1318 29.2697Z" fill="#29292E" stroke="white"/>
<path d="M107.086 24.848L104.018 40.2735H99.7747L100.061 38.7539C98.7808 39.9199 97.2038 40.5029 95.3306 40.5029C94.1264 40.5029 93.0177 40.2257 92.0047 39.6714C90.9916 39.1171 90.1792 38.3238 89.5675 37.2916C88.975 36.2403 88.6787 35.0074 88.6787 33.593C88.6787 31.8918 89.0514 30.3626 89.7969 29.0055C90.5615 27.6292 91.5937 26.5588 92.8935 25.7942C94.1933 25.0105 95.6269 24.6187 97.1943 24.6187C99.5645 24.6187 101.237 25.3928 102.212 26.9411L102.613 24.848H107.086ZM96.7068 36.8042C97.5861 36.8042 98.3698 36.594 99.0579 36.1734C99.7461 35.7338 100.281 35.1317 100.664 34.3671C101.046 33.6025 101.237 32.7233 101.237 31.7293C101.237 30.678 100.922 29.8465 100.291 29.2348C99.6792 28.6232 98.819 28.3173 97.7104 28.3173C96.8311 28.3173 96.0474 28.5372 95.3593 28.9768C94.6711 29.3973 94.1359 29.9899 93.7536 30.7544C93.3713 31.519 93.1802 32.3983 93.1802 33.3923C93.1802 34.4436 93.486 35.2751 94.0977 35.8867C94.7285 36.4984 95.5982 36.8042 96.7068 36.8042Z" fill="url(#paint0_linear)"/>
<path d="M112.632 40.5029C111.294 40.5029 110.023 40.3595 108.819 40.0728C107.634 39.767 106.707 39.3751 106.038 38.8973L107.758 35.6573C108.427 36.097 109.239 36.4506 110.195 36.7182C111.17 36.9858 112.145 37.1196 113.119 37.1196C114.133 37.1196 114.888 36.9954 115.385 36.7469C115.882 36.4793 116.13 36.1065 116.13 35.6287C116.13 35.2464 115.91 34.9692 115.471 34.7972C115.031 34.6252 114.324 34.4436 113.349 34.2524C112.24 34.0422 111.323 33.8128 110.596 33.5643C109.889 33.3158 109.268 32.9144 108.733 32.3601C108.217 31.7866 107.959 31.0125 107.959 30.0376C107.959 28.3364 108.666 27.008 110.08 26.0523C111.514 25.0965 113.387 24.6187 115.7 24.6187C116.77 24.6187 117.812 24.7333 118.825 24.9627C119.838 25.1921 120.698 25.5075 121.406 25.9089L119.8 29.1775C118.538 28.3938 117.019 28.0019 115.241 28.0019C114.266 28.0019 113.521 28.1453 113.005 28.432C112.508 28.7187 112.259 29.0819 112.259 29.5216C112.259 29.923 112.479 30.2192 112.919 30.4104C113.358 30.5824 114.094 30.7736 115.127 30.9838C116.216 31.1941 117.105 31.4235 117.793 31.6719C118.5 31.9013 119.112 32.2932 119.628 32.8475C120.144 33.4018 120.402 34.1568 120.402 35.1126C120.402 36.8329 119.676 38.1614 118.223 39.098C116.79 40.0346 114.926 40.5029 112.632 40.5029Z" fill="url(#paint1_linear)"/>
<path d="M132.595 31.5573L137.899 40.2735H132.71L129.04 34.2811L126.316 36.5462L125.57 40.2735H121.097L125.341 18.999H129.814L127.434 30.8978L134.831 24.848H140.652L132.595 31.5573Z" fill="url(#paint2_linear)"/>
<path d="M82.0842 15.9024V8.73438C82.0842 5.56737 84.6516 3 87.8186 3H149.463C152.63 3 155.198 5.56737 155.198 8.73438V48.8751C155.198 52.0421 152.63 54.6094 149.463 54.6094H139.428L142.782 70.2603C143.075 71.6282 141.436 72.563 140.408 71.6141L125.092 57.4766H87.8186C84.6516 57.4766 82.0842 54.9093 82.0842 51.7422V48.8751" stroke="url(#paint3_linear)" stroke-width="4.30079"/>
<defs>
<linearGradient id="paint0_linear" x1="88.6787" y1="18.999" x2="100.758" y2="53.1105" gradientUnits="userSpaceOnUse">
<stop stop-color="#485BFF"/>
<stop offset="1" stop-color="#FF59F8"/>
</linearGradient>
<linearGradient id="paint1_linear" x1="88.6787" y1="18.999" x2="100.758" y2="53.1105" gradientUnits="userSpaceOnUse">
<stop stop-color="#485BFF"/>
<stop offset="1" stop-color="#FF59F8"/>
</linearGradient>
<linearGradient id="paint2_linear" x1="88.6787" y1="18.999" x2="100.758" y2="53.1105" gradientUnits="userSpaceOnUse">
<stop stop-color="#485BFF"/>
<stop offset="1" stop-color="#FF59F8"/>
</linearGradient>
<linearGradient id="paint3_linear" x1="82.0842" y1="3" x2="142.295" y2="77.547" gradientUnits="userSpaceOnUse">
<stop stop-color="#485BFF"/>
<stop offset="1" stop-color="#FF59F8"/>
</linearGradient>
</defs>
</svg>
